<svg id="visual" viewBox="0 0 540 960" width="540" height="960" xmlns="http://www.w3.org/2000/svg" xmlns:xlink="http://www.w3.org/1999/xlink" version="1.1"><rect x="0" y="0" width="540" height="960" fill="#002233"></rect><path d="M0 247L12.8 224.7C25.7 202.3 51.3 157.7 77 141.5C102.7 125.3 128.3 137.7 154 135C179.7 132.3 205.3 114.7 231.2 117.8C257 121 283 145 308.8 145.8C334.7 146.7 360.3 124.3 386 128C411.7 131.7 437.3 161.3 463 167.5C488.7 173.7 514.3 156.3 527.2 147.7L540 139L540 0L527.2 0C514.3 0 488.7 0 463 0C437.3 0 411.7 0 386 0C360.3 0 334.7 0 308.8 0C283 0 257 0 231.2 0C205.3 0 179.7 0 154 0C128.3 0 102.7 0 77 0C51.3 0 25.7 0 12.8 0L0 0Z" fill="#0066FF" stroke-linecap="round" stroke-linejoin="miter"></path></svg>